<svg class="icon" style="width: 1em;height: 1em;vertical-align: middle;fill: currentColor;overflow: hidden;" viewBox="0 0 1024 1024" version="1.1" xmlns="http://www.w3.org/2000/svg" p-id="737"><path d="M102.4 353.0752C102.4 256 137.0112 172.9536 206.1312 103.7312 275.2512 34.6112 358.4 0 455.4752 0c97.0752 0 180.224 34.6112 249.344 103.7312C774.0416 172.9536 808.6528 256 808.6528 353.0752L808.6528 512c0 11.776-5.8368 17.6128-17.6128 17.6128S773.3248 523.776 773.3248 512L773.3248 494.3872 737.9968 494.3872l0 512C737.9968 1018.1632 732.0576 1024 720.2816 1024L190.6688 1024C178.8928 1024 173.056 1018.1632 173.056 1006.3872l0-512L137.728 494.3872 137.728 512c0 11.776-5.8368 17.6128-17.6128 17.6128S102.4 523.776 102.4 512L102.4 353.0752zM773.3248 459.0592 773.3248 353.0752c0-86.8352-31.232-161.3824-93.7984-223.9488C616.96 66.56 542.3104 35.328 455.4752 35.328c-86.8352 0-161.4848 31.232-223.9488 93.7984C168.96 191.6928 137.728 266.3424 137.728 353.0752l0 105.8816L173.056 458.9568 173.056 406.1184c0-11.776 5.8368-17.6128 17.6128-17.6128l529.6128 0c11.776 0 17.6128 5.8368 17.6128 17.6128l0 52.9408L773.3248 459.0592zM702.6688 423.7312 208.2816 423.7312l0 35.328 494.3872 0L702.6688 423.7312zM702.6688 494.3872 208.2816 494.3872l0 494.3872 494.3872 0L702.6688 494.3872z" p-id="738"></path></svg>