<svg class="icon" style="width: 1.0615234375em;height: 1em;vertical-align: middle;fill: currentColor;overflow: hidden;" viewBox="0 0 1087 1024" version="1.1" xmlns="http://www.w3.org/2000/svg" p-id="737"><path d="M800.21006711 90.125a158.18335208 158.18335208 0 0 1 158.18335208 158.18335208v527.27784028a158.18335208 158.18335208 0 0 1-158.18335208 158.18335207H272.93222683a158.18335208 158.18335208 0 0 1-158.18335207-158.18335207V248.30835208a158.18335208 158.18335208 0 0 1 158.18335207-158.18335208h527.27784028z m0 68.54611899H272.93222683A89.63723309 89.63723309 0 0 0 183.29499457 248.30835208v527.27784028A89.63723309 89.63723309 0 0 0 272.93222683 865.22342545h527.27784028a89.63723309 89.63723309 0 0 0 89.63723309-89.63723309V248.30835208A89.63723309 89.63723309 0 0 0 800.21006711 158.67111899z" fill="#000000" p-id="738"></path><path d="M439.18293058 323.44544397m34.27305907 0l274.02629343 0q34.27305991 0 34.27305991 34.2730599l0 0q0 34.27305991-34.27305991 34.2730599l-274.02629343 0q-34.27305991 0-34.27305908-34.2730599l0 0q0-34.27305991 34.27305908-34.2730599Z" fill="#000000" p-id="739"></path><path d="M439.18293058 481.62879605m34.27305907 0l274.02629343 0q34.27305991 0 34.27305991 34.27305991l0 0q0 34.27305991-34.27305991 34.27305991l-274.02629343 0q-34.27305991 0-34.27305908-34.27305991l0 0q0-34.27305991 34.27305908-34.27305991Z" fill="#000000" p-id="740"></path><path d="M439.18293058 639.81214813m34.27305907-1e-8l274.02629343 0q34.27305991 0 34.27305991 34.27305991l0 0q0 34.27305991-34.27305991 34.27305991l-274.02629343 0q-34.27305991 0-34.27305908-34.27305991l0 0q0-34.27305991 34.27305908-34.27305991Z" fill="#000000" p-id="741"></path><path d="M333.56917918 357.71850388m-52.72778404 0a52.72778403 52.72778403 0 1 0 105.45556805 0 52.72778403 52.72778403 0 1 0-105.45556805 0Z" fill="#000000" p-id="742"></path><path d="M333.56917918 515.90185596m-52.72778404 0a52.72778403 52.72778403 0 1 0 105.45556805 0 52.72778403 52.72778403 0 1 0-105.45556805 0Z" fill="#000000" p-id="743"></path><path d="M333.56917918 674.08520803m-52.72778404 0a52.72778403 52.72778403 0 1 0 105.45556805 0 52.72778403 52.72778403 0 1 0-105.45556805 0Z" fill="#000000" p-id="744"></path></svg>